<svg width="146" height="80" viewBox="0 0 146 80" fill="none" xmlns="http://www.w3.org/2000/svg">
<mask id="mask0" mask-type="alpha" maskUnits="userSpaceOnUse" x="0" y="0" width="146" height="80">
<rect width="146" height="80" fill="#C4C4C4"/>
</mask>
<g mask="url(#mask0)">
<path d="M89.5331 83.6244C89.5331 83.6244 83.0182 85.5521 75.9111 85.9363C74.6054 86.0105 74.4776 85.2825 72.2095 85.2825C65.7013 85.2825 64.5908 92.5217 64.9072 98.3521C65.3648 106.818 68.7569 109.575 74.5247 110.276C81.8472 111.165 97.4411 106.218 97.4411 106.218C97.4411 106.218 101.459 104.823 105.692 100.94C115.815 91.6521 110.68 79.8633 110.68 79.8633H91.007" fill="#FFD632"/>
<path d="M89.5331 83.6244C89.5331 83.6244 83.0182 85.5521 75.9111 85.9363C74.6054 86.0105 74.4776 85.2825 72.2095 85.2825C65.7013 85.2825 64.5908 92.5217 64.9072 98.3521C65.3648 106.818 68.7569 109.575 74.5247 110.276C81.8472 111.165 97.4411 106.218 97.4411 106.218C97.4411 106.218 101.459 104.823 105.692 100.94C115.815 91.6521 110.68 79.8633 110.68 79.8633H91.007" stroke="black" stroke-width="2.0801" stroke-miterlimit="10" stroke-linecap="round" stroke-linejoin="round"/>
<path d="M100.275 96.4986C114.879 92.6027 129.679 97.1255 127.189 69.8272C124.699 42.5357 117.067 51.2644 117.067 51.2644" fill="#FFD632"/>
<path d="M100.275 96.4986C114.879 92.6027 129.679 97.1255 127.189 69.8272C124.699 42.5357 117.067 51.2644 117.067 51.2644" stroke="black" stroke-width="2.0801" stroke-miterlimit="10" stroke-linecap="round" stroke-linejoin="round"/>
<path d="M131.038 58.4833C139.546 54.0481 141.888 43.9578 142.339 42.0368C142.803 40.035 143.819 33.3553 141.41 25.9477C135.716 8.42954 118.19 5.82103 108.795 5.35595C99.3996 4.88412 81.8202 5.77385 74.2823 22.5842C70.1836 31.7174 71.6912 40.4663 71.8864 41.3089C72.3238 43.1894 74.1477 51.0621 81.0462 55.841C84.3508 58.1328 87.4871 58.7866 93.2212 59.9931C97.9728 60.9907 101.54 61.1389 106.076 61.3277C110.962 61.5299 115.471 61.6984 121.3 60.8356C126.193 60.1009 128.636 59.737 131.038 58.4833Z" fill="white"/>
<path d="M141.464 25.9472C140.945 24.5789 138.193 17.5622 130.897 12.0621C122.282 5.56442 112.914 5.18022 108.842 5.35547C90.1119 6.16431 80.1444 9.6221 74.3362 22.5837C70.9307 30.1868 70.7894 36.5766 72.0277 41.6656C71.8393 40.9848 70.5471 36.0239 73.6766 31.5551C76.5706 27.43 81.1068 26.7627 81.9817 26.6279C84.3979 26.2707 86.3631 26.7358 87.615 27.0458C92.7367 28.3063 94.9711 31.3124 96.896 30.2879C97.4411 29.9981 97.8786 29.5734 98.2555 28.0771C99.3862 23.6083 98.6862 14.7515 107.2 15.1761C115.714 15.6008 108.526 24.0599 109.212 28.6231C109.347 29.5263 109.603 29.9576 109.919 30.3014C111.346 31.8584 114.213 30.8945 118.204 30.3418C120.734 29.9913 124.409 29.4791 127.754 30.1396C128.542 30.2947 133.636 31.3731 136.759 35.451C140.198 39.9401 140.232 46.7545 137.082 52.7871C138.731 50.92 141.746 46.9972 142.971 41.214C144.472 34.1636 142.446 28.5624 141.464 25.9472Z" fill="#FFD632"/>
<path d="M131.092 58.4898C131.092 58.4898 148.429 47.3817 141.464 25.9542C135.763 8.42941 118.244 5.82765 108.842 5.35582C99.44 4.884 81.8741 5.77372 74.3362 22.5841C64.7254 44.0183 81.1001 55.8408 81.1001 55.8408C81.1001 55.8408 86.1815 60.3366 105.43 61.2937" stroke="black" stroke-width="2.0801" stroke-miterlimit="10" stroke-linecap="round" stroke-linejoin="round"/>
<path d="M87.2717 9.29898C87.2717 9.29898 81.975 6.70396 78.0648 10.0606C74.1545 13.4173 74.7737 17.4682 75.2784 18.6006C76.2611 20.7979 82.4798 24.9971 85.2123 23.2379C88.2409 21.2832 85.5555 12.6691 85.5555 12.6691" fill="#FFD632"/>
<path d="M87.2717 9.29898C87.2717 9.29898 81.975 6.70396 78.0648 10.0606C74.1545 13.4173 74.7737 17.4682 75.2784 18.6006C76.2611 20.7979 82.4798 24.9971 85.2123 23.2379C88.2409 21.2832 85.5555 12.6691 85.5555 12.6691" stroke="black" stroke-width="2.0801" stroke-miterlimit="10" stroke-linecap="round" stroke-linejoin="round"/>
<path d="M129.565 11.395C129.565 11.395 135.09 9.33922 138.65 13.0666C142.211 16.7941 141.194 20.7641 140.582 21.8426C139.391 23.9321 132.782 27.4977 130.244 25.4756C127.418 23.2311 130.951 14.927 130.951 14.927" fill="#FFD632"/>
<path d="M129.565 11.395C129.565 11.395 135.09 9.33922 138.65 13.0666C142.211 16.7941 141.194 20.7641 140.582 21.8426C139.391 23.9321 132.782 27.4977 130.244 25.4756C127.418 23.2311 130.951 14.927 130.951 14.927" stroke="black" stroke-width="2.0801" stroke-miterlimit="10" stroke-linecap="round" stroke-linejoin="round"/>
<path d="M93.6049 33.6924C93.6049 33.6924 95.9066 35.8964 98.1142 34.7978C100.322 33.6991 100.927 33.0453 103.148 33.1532C105.369 33.2678 106.164 34.0024 108.25 35.3168C110.336 36.6311 112.537 34.9191 112.537 34.9191" stroke="black" stroke-width="2.0801" stroke-miterlimit="10" stroke-linecap="round" stroke-linejoin="round"/>
<path d="M106.87 29.4055C106.884 29.392 106.897 29.3785 106.911 29.365C107.853 28.3944 107.429 26.7969 106.143 26.3992C105.329 26.143 104.434 26.0352 103.781 26.0015C103.128 25.9678 102.226 25.988 101.392 26.1565C100.073 26.4261 99.4938 27.9765 100.335 29.0347C100.349 29.0482 100.362 29.0684 100.369 29.0819C101.997 31.1041 105.046 31.2591 106.87 29.4055Z" fill="#2DC275" stroke="black" stroke-width="2.0801" stroke-miterlimit="10"/>
<path d="M92.3733 25.3679C91.9964 25.3477 91.7002 25.6915 91.7743 26.0689C92.0367 27.4642 93.2213 28.5561 94.7019 28.6303C96.1826 28.7044 97.4748 27.7405 97.8651 26.3722C97.9728 26.0082 97.7171 25.6375 97.3335 25.6173L92.3733 25.3679Z" fill="black"/>
<path d="M116.488 26.6284C116.865 26.6486 117.12 27.0193 117.019 27.3833C116.622 28.7449 115.33 29.7155 113.856 29.6414C112.376 29.5672 111.191 28.482 110.929 27.08C110.861 26.7093 111.151 26.3588 111.528 26.379L116.488 26.6284Z" fill="black"/>
<path d="M91.3234 41.855C91.8618 41.0933 91.6868 40.0351 90.9263 39.4959C90.9128 39.4891 90.8993 39.4756 90.8859 39.4689C91.0003 39.3678 91.1013 39.2532 91.1955 39.1184C91.882 38.1478 91.6531 36.7997 90.684 36.1122C89.7148 35.4247 88.3688 35.6539 87.6823 36.6245C87.6284 36.6986 87.5881 36.7728 87.541 36.8469C87.4804 36.793 87.4198 36.7391 87.3525 36.6919C86.491 36.0785 85.3065 36.2807 84.6941 37.1435C84.0816 38.0062 84.2835 39.1925 85.145 39.8059C85.3065 39.9205 85.4882 40.0081 85.67 40.0688C85.5353 40.6417 85.744 41.2618 86.2488 41.6191C86.915 42.0909 87.8304 41.9359 88.3082 41.2753C88.4024 41.6595 88.6245 42.01 88.9745 42.2594C89.7216 42.7986 90.7782 42.6166 91.3234 41.855Z" fill="white" stroke="black" stroke-width="2.0801" stroke-miterlimit="10" stroke-linecap="round" stroke-linejoin="round"/>
<path d="M74.6525 42.7314C68.9183 46.4319 61.5016 54.426 63.8437 60.3036C64.7456 62.5751 66.9935 64.2332 69.1674 64.7792C72.5258 65.6217 75.4736 63.7411 78.159 61.9617C79.4175 61.1326 91.6262 52.8757 89.5937 44.5985C89.4389 43.9784 88.6918 41.2351 86.3228 39.9342C82.3721 37.7503 76.961 41.2418 74.6525 42.7314Z" fill="#FFD632" stroke="black" stroke-width="2.0801" stroke-miterlimit="10" stroke-linecap="round" stroke-linejoin="round"/>
<path d="M103.377 66.43C119.254 66.8614 128.333 63.572 131.752 61.9813L131.779 58.0988C128.643 59.5075 118.365 63.39 103.471 62.9856C88.5774 62.5812 78.5292 58.146 75.4736 56.5754L75.2919 60.4512C78.6167 62.2239 87.5006 65.9986 103.377 66.43Z" fill="#2DC275" stroke="black" stroke-width="2.0801" stroke-miterlimit="10" stroke-linecap="round" stroke-linejoin="round"/>
<path d="M93.9415 54.1558C93.5915 52.5786 92.0301 51.5878 90.4552 51.9383C90.4283 51.945 90.4014 51.9518 90.3677 51.9653C90.3677 51.7024 90.3408 51.4328 90.2802 51.1632C89.8293 49.1545 87.8439 47.8941 85.845 48.3457C83.8394 48.7973 82.5808 50.7857 83.0318 52.7876C83.0654 52.9359 83.1125 53.0841 83.1596 53.2257C83.0183 53.2392 82.8837 53.2594 82.7424 53.2863C80.9656 53.684 79.8551 55.4432 80.2522 57.2227C80.6493 59.0021 82.4058 60.1143 84.1826 59.7166C84.5191 59.6424 84.8355 59.5144 85.1181 59.3459C85.6902 60.1817 86.7267 60.6333 87.7766 60.3974C89.1496 60.0873 90.011 58.7325 89.7082 57.3575C90.3072 57.681 91.0206 57.8023 91.734 57.6406C93.3021 57.2968 94.2915 55.7331 93.9415 54.1558Z" fill="white" stroke="black" stroke-width="2.0801" stroke-miterlimit="10" stroke-linecap="round" stroke-linejoin="round"/>
<path d="M71.3144 61.2197L84.8489 56.3262L112.752 59.0695L103.222 64.8797L71.3144 61.2197Z" fill="#C1272D" stroke="black" stroke-width="2.0801" stroke-miterlimit="10" stroke-linecap="round" stroke-linejoin="round"/>
<path d="M85.8921 56.1984C85.1652 54.7559 83.4086 54.1763 81.9683 54.9042C81.9414 54.9177 81.9145 54.9312 81.8943 54.9514C81.827 54.6953 81.7395 54.4392 81.6116 54.1965C80.6896 52.3632 78.4551 51.6217 76.6245 52.5451C74.7939 53.4686 74.0535 55.7063 74.9756 57.5397C75.0429 57.6745 75.1237 57.8093 75.2044 57.9306C75.0765 57.9778 74.9419 58.0317 74.8141 58.0924C73.1921 58.9079 72.5392 60.8896 73.3536 62.5207C74.168 64.1451 76.1466 64.7989 77.7754 63.9833C78.085 63.8283 78.3609 63.6261 78.5965 63.3969C79.357 64.071 80.4675 64.253 81.4299 63.7677C82.6817 63.1341 83.1932 61.604 82.5606 60.3436C83.2201 60.5121 83.9403 60.4582 84.5931 60.1279C86.0401 59.4 86.6189 57.6408 85.8921 56.1984Z" fill="white" stroke="black" stroke-width="2.0801" stroke-miterlimit="10" stroke-linecap="round" stroke-linejoin="round"/>
<path d="M91.1551 63.599C92.0301 62.2442 91.6465 60.431 90.2937 59.5548C90.2668 59.5413 90.2398 59.5278 90.2196 59.5076C90.4081 59.3189 90.5831 59.1167 90.7311 58.8808C91.8484 57.1553 91.3571 54.8501 89.6341 53.7312C87.9112 52.6123 85.6094 53.1043 84.4922 54.8299C84.4114 54.9579 84.3374 55.0927 84.2701 55.2275C84.1624 55.1399 84.0547 55.0523 83.9336 54.9714C82.4058 53.9806 80.3733 54.4187 79.3839 55.942C78.3946 57.4721 78.8321 59.5076 80.3531 60.4985C80.6425 60.6872 80.9521 60.822 81.2751 60.9096C81.08 61.9004 81.4838 62.9587 82.3856 63.5451C83.5634 64.3135 85.1383 63.9764 85.9056 62.7969C86.094 63.4507 86.5045 64.0439 87.1237 64.4415C88.4765 65.338 90.2802 64.9538 91.1551 63.599Z" fill="white" stroke="black" stroke-width="2.0801" stroke-miterlimit="10" stroke-linecap="round" stroke-linejoin="round"/>
<path d="M99.965 63.3025C100.174 61.6983 99.043 60.2356 97.4412 60.0267C97.4142 60.02 97.3806 60.0199 97.3537 60.0199C97.4412 59.7706 97.5085 59.5077 97.5421 59.2381C97.8046 57.2025 96.3643 55.3354 94.3318 55.0725C92.2993 54.8097 90.435 56.2521 90.1725 58.2877C90.1523 58.4427 90.1456 58.591 90.1456 58.746C90.011 58.7123 89.8764 58.6786 89.7351 58.6651C87.9314 58.436 86.2824 59.7099 86.0536 61.5163C85.8248 63.3227 87.0968 64.9741 88.9005 65.2033C89.2437 65.2504 89.5803 65.237 89.91 65.1763C90.1591 66.1604 90.9869 66.9355 92.0503 67.0703C93.4434 67.2523 94.7154 66.2682 94.9039 64.873C95.3548 65.3853 95.9807 65.7358 96.7143 65.8301C98.2959 66.0323 99.7564 64.9 99.965 63.3025Z" fill="white" stroke="black" stroke-width="2.0801" stroke-miterlimit="10" stroke-linecap="round" stroke-linejoin="round"/>
<path d="M96.1557 61.705C96.4249 63.2957 97.9325 64.3674 99.5208 64.0978C99.5478 64.0911 99.5814 64.0843 99.6083 64.0776C99.5949 64.3405 99.6083 64.6101 99.6554 64.8797C99.9987 66.9085 101.917 68.2701 103.943 67.9263C105.968 67.5826 107.328 65.6616 106.985 63.6327C106.958 63.4777 106.924 63.3362 106.877 63.1879C107.018 63.1811 107.153 63.1676 107.294 63.1474C109.084 62.8441 110.289 61.1388 109.986 59.3459C109.683 57.5529 107.981 56.3464 106.19 56.6497C105.847 56.7104 105.531 56.8182 105.235 56.9665C104.71 56.1038 103.694 55.5982 102.637 55.7802C101.251 56.0161 100.322 57.3305 100.551 58.719C99.9718 58.3618 99.2651 58.2067 98.5449 58.3281C96.9566 58.6044 95.8865 60.1143 96.1557 61.705Z" fill="white" stroke="black" stroke-width="2.0801" stroke-miterlimit="10" stroke-linecap="round" stroke-linejoin="round"/>
<path d="M103.209 56.831C103.344 55.2201 102.146 53.8113 100.537 53.6765C100.51 53.6765 100.477 53.6765 100.45 53.6765C100.53 53.4204 100.584 53.1575 100.604 52.8879C100.773 50.8388 99.2516 49.0459 97.2056 48.8774C95.1596 48.7088 93.3694 50.2322 93.1944 52.2813C93.1809 52.4363 93.1809 52.5846 93.1877 52.7396C93.0531 52.7127 92.9117 52.6857 92.7704 52.6722C90.9599 52.5239 89.3716 53.872 89.2235 55.6852C89.0755 57.4983 90.4215 59.0891 92.232 59.2374C92.5752 59.2643 92.9184 59.2374 93.2348 59.1632C93.5309 60.1338 94.3856 60.8686 95.4558 60.9562C96.8556 61.0708 98.0873 60.0327 98.2017 58.6307C98.6796 59.116 99.3189 59.4463 100.053 59.507C101.668 59.6351 103.074 58.442 103.209 56.831Z" fill="white" stroke="black" stroke-width="2.0801" stroke-miterlimit="10" stroke-linecap="round" stroke-linejoin="round"/>
<path d="M112.752 59.0695C112.752 59.0695 115.182 79.8905 107.981 94.9957L98.6593 100.321L95.5634 70.0024L112.752 59.0695Z" fill="#C1272D" stroke="black" stroke-width="2.0801" stroke-miterlimit="10" stroke-linecap="round" stroke-linejoin="round"/>
<path d="M71.3144 61.2197C71.3144 61.2197 68.8175 84.0021 73.0104 97.9546C73.0104 97.9546 75.4131 98.1905 78.8119 98.5141L79.5455 62.1701L71.3144 61.2197Z" fill="white"/>
<path d="M79.5455 62.1632L78.8119 98.5073C81.08 98.723 83.7788 98.9791 86.5113 99.2353L87.2449 63.0462L79.5455 62.1632Z" fill="#C1272D"/>
<path d="M87.2449 63.0463L86.5113 99.2352C89.1832 99.4846 91.8753 99.734 94.2174 99.9429L94.9443 63.936L87.2449 63.0463Z" fill="white"/>
<path d="M103.222 64.8797L94.9443 63.9293L94.2174 99.9362C95.9471 100.091 97.4816 100.219 98.6594 100.314C98.6594 100.32 104.878 82.4922 103.222 64.8797Z" fill="#C1272D"/>
<path d="M71.3144 61.2197C71.3144 61.2197 68.8175 84.0021 73.0104 97.9546C73.0104 97.9546 91.8282 99.7745 98.6594 100.321C98.6594 100.321 104.885 82.4923 103.229 64.8797L71.3144 61.2197Z" stroke="black" stroke-width="2.0801" stroke-miterlimit="10" stroke-linecap="round" stroke-linejoin="round"/>
<path d="M120.465 75.469C108.391 74.795 102.213 79.6076 101.923 84.582C101.607 90.0282 105.74 91.4976 108.438 92.758C113.701 95.2115 123.191 92.6299 125.735 91.3223C136.194 85.9503 136.988 78.9335 135.81 71.2563C135.225 67.4682 133.683 64.5699 133.502 64.2194C132.99 63.2488 132.432 62.4601 131.752 61.5165C131.752 61.5165 128.178 63.9295 122.929 64.8125" fill="#FFD632"/>
<path d="M120.465 75.469C108.391 74.795 102.213 79.6076 101.923 84.582C101.607 90.0282 105.74 91.4976 108.438 92.758C113.701 95.2115 123.191 92.6299 125.735 91.3223C136.194 85.9503 136.988 78.9336 135.81 71.2563C135.225 67.4682 133.683 64.5699 133.502 64.2194C132.99 63.2488 132.432 62.4601 131.752 61.5165C131.752 61.5165 128.178 63.9295 122.929 64.8125" stroke="black" stroke-width="2.0801" stroke-miterlimit="10" stroke-linecap="round" stroke-linejoin="round"/>
<path d="M28.0067 21.7743C26.6573 22.0575 25.2446 22.4459 23.8152 22.9569C22.3858 23.468 21.0464 24.0493 19.8129 24.6895L10.7328 27.9196L12.5789 33.2301C13.6557 36.3172 20.4235 36.7221 27.6967 34.1278C34.9698 31.5336 39.9999 26.9349 38.9231 23.8478L37.077 18.5373L28.0067 21.7743Z" fill="#2A2D34" stroke="#2A2D34" stroke-width="2" stroke-miterlimit="10" stroke-linecap="round" stroke-linejoin="round"/>
<path d="M25.7883 28.7383C33.0381 26.1369 38.047 21.5147 36.9761 18.4143C35.9051 15.314 29.1598 14.9095 21.91 17.5109C14.6602 20.1122 9.65124 24.7344 10.7222 27.8348C11.7932 30.9351 18.5385 31.3396 25.7883 28.7383Z" fill="#F5F7FC" stroke="#2A2D34" stroke-width="2" stroke-miterlimit="10" stroke-linecap="round" stroke-linejoin="round"/>
<path d="M19.8023 22.6783C21.1788 22.1845 22.1329 21.316 21.9334 20.7385C21.7338 20.1609 20.4562 20.0931 19.0797 20.587C17.7032 21.0808 16.7491 21.9493 16.9486 22.5268C17.1481 23.1044 18.4258 23.1722 19.8023 22.6783Z" fill="#2A2D34"/>
<path d="M17.199 27.3106C18.5755 26.8167 19.5296 25.9482 19.3301 25.3707C19.1305 24.7931 17.8529 24.7253 16.4764 25.2192C15.0999 25.713 14.1458 26.5815 14.3453 27.159C14.5448 27.7366 15.8224 27.8044 17.199 27.3106Z" fill="#2A2D34"/>
<path d="M31.6895 22.4161C33.066 21.9223 34.0201 21.0538 33.8206 20.4763C33.6211 19.8987 32.3434 19.8309 30.9669 20.3247C29.5904 20.8186 28.6363 21.6871 28.8358 22.2646C29.0353 22.8422 30.313 22.91 31.6895 22.4161Z" fill="#2A2D34"/>
<path d="M27.3957 20.0036C28.7722 19.5098 29.7263 18.6412 29.5268 18.0637C29.3272 17.4862 28.0496 17.4183 26.6731 17.9122C25.2966 18.406 24.3425 19.2746 24.542 19.8521C24.7415 20.4297 26.0192 20.4975 27.3957 20.0036Z" fill="#2A2D34"/>
<path d="M25.1143 26.7281C26.4908 26.2343 27.4449 25.3657 27.2454 24.7882C27.0459 24.2106 25.7683 24.1428 24.3917 24.6367C23.0152 25.1305 22.0611 25.9991 22.2606 26.5766C22.4602 27.1542 23.7378 27.222 25.1143 26.7281Z" fill="#2A2D34"/>
<path d="M25.7625 28.9918C25.7625 28.9918 36.7203 24.7975 42.3369 20.4262C47.096 16.7218 54.9089 15.6232 58.7159 16.9918L60.6546 22.559C60.6546 22.559 51.8769 20.0379 44.565 25.2363C36.0213 31.302 32.2234 32.6511 27.6079 34.2936" fill="#2A2D34"/>
<path d="M25.7625 28.9918C25.7625 28.9918 36.7203 24.7975 42.3369 20.4262C47.096 16.7218 54.909 15.6232 58.7159 16.9918L60.6546 22.559C60.6546 22.559 51.8769 20.0379 44.565 25.2363C36.0213 31.302 32.2234 32.6511 27.6079 34.2936" stroke="#2A2D34" stroke-width="2" stroke-miterlimit="10" stroke-linecap="round" stroke-linejoin="round"/>
<path d="M26.114 31.0898L26.5299 32.293C26.6231 32.5659 26.9264 32.6993 27.2116 32.5889C27.95 32.3041 29.3417 31.7583 30.337 31.3511C30.605 31.2438 30.74 30.9557 30.6492 30.6994L30.2334 29.4962C30.1401 29.2232 29.8196 29.093 29.543 29.2018C28.5477 29.609 27.1733 30.1518 26.4423 30.4267C26.1657 30.5356 26.0232 30.8334 26.114 31.0898Z" fill="white"/>
<path d="M31.8828 28.8471L32.2992 30.0527C32.3938 30.3345 32.7332 30.4702 33.0237 30.3331C34.0709 29.8478 35.0897 29.3505 36.0715 28.8428C36.3114 28.7232 36.4219 28.4476 36.342 28.2058L35.9269 27.0086C35.8225 26.72 35.4843 26.5926 35.1949 26.738C34.2293 27.2344 33.2265 27.7203 32.188 28.204C31.9296 28.3183 31.7932 28.5986 31.8828 28.8471Z" fill="white"/>
<path d="M20.3682 32.5746L20.7817 33.7629C20.86 33.9946 21.1009 34.1297 21.3594 34.0838C22.3678 33.9049 23.5163 33.7774 24.728 33.4184C25.0248 33.3319 25.183 33.0244 25.09 32.753L24.6752 31.5564C24.5847 31.3015 24.2995 31.1659 24.0285 31.2478C22.8685 31.5976 21.7619 31.7092 20.7904 31.8985C20.463 31.9566 20.2629 32.28 20.3682 32.5746Z" fill="white"/>
<path d="M13.8592 32.3292L14.2112 33.339C14.2603 33.492 14.3834 33.6063 14.5498 33.6533C15.4634 33.8992 16.7213 34.0753 18.3608 34.0132C18.7223 34 18.9808 33.6475 18.8704 33.3182L18.4706 32.1636C18.3958 31.9556 18.19 31.822 17.9519 31.8304C16.5282 31.9136 15.3886 31.8186 14.486 31.6473C14.0754 31.5672 13.7243 31.9532 13.8592 32.3292Z" fill="white"/>
<path d="M54.0699 18.9007L54.4593 20.043C54.5244 20.2447 54.7205 20.3719 54.9429 20.3749C56.1238 20.3777 56.6253 20.4078 57.7997 20.608C58.1998 20.6732 58.544 20.2961 58.4175 19.9176L58.0601 18.8721C57.9999 18.7036 57.8581 18.5839 57.684 18.5466C56.4393 18.2907 55.8711 18.2298 54.6149 18.1978C54.2331 18.1976 53.9483 18.5555 54.0699 18.9007Z" fill="white"/>
<path d="M37.3181 26.0626L37.7325 27.2539C37.8383 27.5513 38.2042 27.6827 38.4902 27.512C39.5575 26.9112 40.5445 26.3077 41.4534 25.7181C41.6565 25.5879 41.7436 25.333 41.676 25.1142L41.2714 23.9298C41.1632 23.6157 40.7726 23.4973 40.4803 23.6862C39.5874 24.2644 38.6154 24.8481 37.5803 25.426C37.3425 25.5625 37.2307 25.8303 37.3181 26.0626Z" fill="white"/>
<path d="M47.9136 19.6556L48.3284 20.8526C48.419 21.1076 48.6944 21.2366 48.9654 21.1546C49.9999 20.8524 51.1181 20.5777 52.2028 20.436C52.55 20.3914 52.7747 20.055 52.6682 19.752L52.2657 18.5782C52.1886 18.3547 51.9649 18.2165 51.7223 18.2511C50.5663 18.3885 49.3779 18.6672 48.283 18.9801C47.9874 19.0749 47.8206 19.3841 47.9136 19.6556Z" fill="white"/>
<path d="M42.5132 22.5851L42.918 23.7701C43.0262 24.0844 43.4083 24.2044 43.7007 24.0154C44.4092 23.5725 45.6037 22.6837 46.5585 22.2225C46.8074 22.1011 46.9366 21.83 46.8468 21.5809L46.4297 20.3724C46.3338 20.0816 45.9863 19.9554 45.6965 20.1012C44.6513 20.6127 43.3701 21.5769 42.7433 21.971C42.524 22.1127 42.4357 22.3594 42.5132 22.5851Z" fill="white"/>
<path d="M33.7117 78.5401C33.664 78.5706 33.6121 78.5945 33.5603 78.6184L31.9944 79.2136C31.7405 79.3114 31.4614 79.2776 31.2474 79.1191C31.0375 78.9672 30.916 78.7126 30.9408 78.4476L31.8759 65.7137C31.8939 65.453 32.0433 65.2191 32.2615 65.0795C32.3092 65.049 32.3611 65.0251 32.4129 65.0012L34.1562 64.3387C34.4102 64.2409 34.6934 64.2813 34.9033 64.4332C35.1132 64.585 35.2278 64.844 35.203 65.109L34.0973 77.9059C34.0725 78.1709 33.9231 78.4049 33.7117 78.5401Z" fill="#FFD530"/>
<path d="M32.657 65.741L34.4 65.0786L33.2944 77.8735L31.7289 78.4686L32.657 65.741ZM31.8308 64.4238C31.3946 64.7027 31.1068 65.1728 31.0667 65.6875L30.1318 78.4195C30.0931 78.9517 30.3209 79.452 30.7516 79.7579C31.1754 80.0682 31.7335 80.1358 32.2413 79.9403L33.8068 79.3452C33.9147 79.304 34.0183 79.2561 34.1206 79.1907C34.5501 78.9161 34.8351 78.457 34.8862 77.9445L35.9917 65.1496C36.0372 64.613 35.8053 64.1061 35.3814 63.7958C34.9576 63.4855 34.3953 63.4113 33.8876 63.6068L32.1446 64.2692C32.0368 64.3105 31.9331 64.3584 31.8308 64.4238Z" fill="#2A2D34"/>
<path d="M51.0715 72.1774C51.0233 72.2081 50.9709 72.2322 50.9185 72.2563L49.3367 72.8551C49.0167 72.9753 48.6723 72.888 48.4528 72.6467L40.2388 63.2767C40.0665 63.0797 40.0086 62.8191 40.0778 62.5612C40.1335 62.3584 40.2612 62.1933 40.4334 62.0836C40.4816 62.0529 40.534 62.0288 40.5864 62.0048L42.3544 61.3338C42.6744 61.2136 43.0257 61.2965 43.2424 61.5488L51.2772 70.9866C51.4384 71.1814 51.5005 71.4486 51.427 71.6999C51.3783 71.8983 51.2437 72.0677 51.0715 72.1774Z" fill="#FFD530"/>
<path d="M40.8627 62.7408L42.6206 62.0749L50.6406 71.5026L49.0616 72.1009L40.8627 62.7408ZM40.029 61.4153C39.6853 61.6344 39.4276 61.9751 39.3123 62.3737C39.1699 62.8823 39.287 63.4206 39.6267 63.8076L47.8256 73.1676C48.2499 73.6585 48.9513 73.8242 49.5789 73.5818L51.1579 72.9835C51.2666 72.942 51.3712 72.8939 51.4743 72.8282C51.818 72.609 52.0757 72.2683 52.1883 71.8808C52.3348 71.3787 52.222 70.8471 51.8891 70.4558L43.8692 61.028C43.4407 60.5305 42.7351 60.3582 42.0964 60.5984L40.3385 61.2643C40.2367 61.3014 40.1321 61.3495 40.029 61.4153Z" fill="#2A2D34"/>
<path d="M46.8186 60.2556L28.073 67.3518C26.9472 67.7786 25.7233 67.2326 25.341 66.1391L23.6182 61.2293C23.2318 60.1292 23.8315 58.8934 24.9505 58.4709L43.6961 51.3748C44.8219 50.9479 46.0457 51.494 46.428 52.5875L48.1508 57.4973C48.544 58.593 47.9443 59.8288 46.8186 60.2556Z" fill="#FFD530" stroke="#2A2D34" stroke-width="2" stroke-miterlimit="10" stroke-linecap="round" stroke-linejoin="round"/>
<path d="M29.3583 56.349C32.3957 54.4064 33.3653 50.4515 31.524 47.5155C29.6828 44.5795 25.7279 43.7741 22.6906 45.7166C19.6532 47.6592 18.6836 51.6141 20.5248 54.5501C22.3661 57.4862 26.321 58.2916 29.3583 56.349Z" fill="#FFD530" stroke="#2A2D34" stroke-width="2" stroke-miterlimit="10" stroke-linecap="round" stroke-linejoin="round"/>
<path d="M27.2416 52.9742C28.3503 52.2651 28.7041 50.8212 28.0318 49.7492C27.3595 48.6771 25.9156 48.3829 24.8069 49.092C23.6982 49.8011 23.3444 51.245 24.0167 52.317C24.689 53.3891 26.1328 53.6833 27.2416 52.9742Z" fill="white"/>
<path d="M41.3609 51.9488C44.3982 50.0063 45.3678 46.0514 43.5266 43.1154C41.6853 40.1793 37.7304 39.3739 34.6931 41.3165C31.6558 43.259 30.6861 47.2139 32.5274 50.15C34.3686 53.086 38.3235 53.8914 41.3609 51.9488Z" fill="#FFD530" stroke="#2A2D34" stroke-width="2" stroke-miterlimit="10" stroke-linecap="round" stroke-linejoin="round"/>
<path d="M39.244 48.5742C40.3527 47.8651 40.7065 46.4212 40.0342 45.3492C39.3619 44.2771 37.9181 43.9829 36.8094 44.692C35.7006 45.4011 35.3468 46.845 36.0191 47.917C36.6914 48.9891 38.1353 49.2833 39.244 48.5742Z" fill="white"/>
<path d="M47.7512 56.8558L53.6269 56.725L51.2099 49.8274L46.5877 53.5396L47.7512 56.8558Z" fill="#FFD530" stroke="#2A2D34" stroke-width="2" stroke-miterlimit="10" stroke-linecap="round" stroke-linejoin="round"/>
<path d="M30.4357 63.1012C31.2477 62.5818 31.507 61.5246 31.0148 60.7398C30.5226 59.9549 29.4654 59.7397 28.6534 60.259C27.8414 60.7783 27.5821 61.8356 28.0743 62.6204C28.5665 63.4052 29.6237 63.6205 30.4357 63.1012Z" fill="#F5F7FC" stroke="#2A2D34" stroke-width="2" stroke-miterlimit="10" stroke-linecap="round" stroke-linejoin="round"/>
<path d="M37.4832 57.3712L43.3061 55.1717" stroke="#2A2D34" stroke-width="2" stroke-miterlimit="10" stroke-linecap="round" stroke-linejoin="round"/>
<path d="M38.4124 59.8963L44.2353 57.6969" stroke="#2A2D34" stroke-width="2" stroke-miterlimit="10" stroke-linecap="round" stroke-linejoin="round"/>
<path d="M54.0938 52.6761C53.4122 50.7673 52.1884 49.4698 51.3603 49.7781C50.5323 50.0863 50.4136 51.8835 51.0952 53.7923C51.7769 55.7011 53.0007 56.9985 53.8287 56.6903C54.6568 56.3821 54.7755 54.5848 54.0938 52.6761Z" fill="#F5F7FC" stroke="#2A2D34" stroke-width="2" stroke-miterlimit="10" stroke-linecap="round" stroke-linejoin="round"/>
</g>
</svg>
