<svg width="184" height="94" viewBox="0 0 184 94" fill="none" xmlns="http://www.w3.org/2000/svg">
<mask id="mask0" mask-type="alpha" maskUnits="userSpaceOnUse" x="0" y="0" width="184" height="94">
<rect width="184" height="94" fill="#C4C4C4"/>
</mask>
<g mask="url(#mask0)">
<path d="M132.531 75.1274C130.905 75.1891 129.187 75.364 127.428 75.6829C125.669 76.0018 124.003 76.4236 122.449 76.9379L111.277 78.9439L112.491 85.7026C113.201 89.6323 121.03 91.5149 129.979 89.8998C138.929 88.2847 145.616 83.7995 144.906 79.8698L143.692 73.1111L132.531 75.1274Z" fill="#2A2D34" stroke="#2A2D34" stroke-width="2" stroke-miterlimit="10" stroke-linecap="round" stroke-linejoin="round"/>
<path d="M128.77 83.1504C137.722 81.5404 144.406 77.0486 143.699 73.1176C142.992 69.1867 135.162 67.3051 126.21 68.9151C117.257 70.5251 110.573 75.017 111.28 78.9479C111.987 82.8789 119.817 84.7604 128.77 83.1504Z" fill="#F5F7FC" stroke="#2A2D34" stroke-width="2" stroke-miterlimit="10" stroke-linecap="round" stroke-linejoin="round"/>
<path d="M122.832 74.7669C124.531 74.4612 125.803 73.6195 125.671 72.887C125.539 72.1545 124.054 71.8085 122.355 72.1142C120.655 72.4199 119.383 73.2616 119.515 73.9941C119.647 74.7266 121.132 75.0726 122.832 74.7669Z" fill="#2A2D34"/>
<path d="M118.89 79.715C120.59 79.4093 121.861 78.5677 121.73 77.8352C121.598 77.1027 120.113 76.7567 118.413 77.0624C116.713 77.3681 115.442 78.2097 115.574 78.9422C115.706 79.6747 117.191 80.0207 118.89 79.715Z" fill="#2A2D34"/>
<path d="M136.851 76.7216C138.551 76.4159 139.823 75.5742 139.691 74.8417C139.559 74.1092 138.074 73.7632 136.374 74.0689C134.675 74.3746 133.403 75.2163 133.535 75.9488C133.667 76.6813 135.152 77.0273 136.851 76.7216Z" fill="#2A2D34"/>
<path d="M132.265 73.0689C133.964 72.7632 135.236 71.9216 135.104 71.1891C134.972 70.4566 133.487 70.1106 131.788 70.4163C130.088 70.722 128.816 71.5636 128.948 72.2961C129.08 73.0287 130.565 73.3746 132.265 73.0689Z" fill="#2A2D34"/>
<path d="M128.303 80.5373C130.003 80.2316 131.275 79.39 131.143 78.6575C131.011 77.925 129.526 77.579 127.826 77.8847C126.126 78.1904 124.855 79.032 124.987 79.7645C125.119 80.497 126.604 80.843 128.303 80.5373Z" fill="#2A2D34"/>
<path d="M128.776 83.1411C128.776 83.1411 142.334 80.343 149.679 76.2281C155.903 72.7408 165.234 73.0288 169.441 75.4669L170.717 82.5856C170.717 82.5856 160.903 77.7301 151.428 82.493C140.359 88.0481 135.679 88.8917 129.99 89.9204" fill="#2A2D34"/>
<path d="M128.776 83.1411C128.776 83.1411 142.334 80.343 149.679 76.2281C155.903 72.7408 165.234 73.0288 169.441 75.4669L170.717 82.5856C170.717 82.5856 160.903 77.7301 151.428 82.493C140.359 88.0481 135.679 88.8917 129.99 89.9204" stroke="#2A2D34" stroke-width="2" stroke-miterlimit="10" stroke-linecap="round" stroke-linejoin="round"/>
<path d="M128.673 85.7746L128.951 87.3177C129.012 87.6675 129.342 87.8938 129.691 87.8218C130.597 87.6366 132.304 87.2765 133.529 86.9988C133.858 86.9268 134.063 86.6079 134.002 86.2787L133.724 84.7356C133.662 84.3858 133.313 84.1595 132.973 84.2315C131.749 84.5093 130.062 84.8693 129.167 85.0442C128.827 85.1162 128.611 85.4454 128.673 85.7746Z" fill="white"/>
<path d="M135.884 84.2418L136.162 85.7849C136.224 86.145 136.594 86.3816 136.954 86.2787C138.25 85.9186 139.516 85.538 140.74 85.1368C141.038 85.0442 141.213 84.7356 141.162 84.427L140.884 82.8942C140.812 82.5239 140.442 82.2975 140.081 82.4107C138.878 82.8016 137.633 83.172 136.347 83.532C136.028 83.6143 135.823 83.9229 135.884 84.2418Z" fill="white"/>
<path d="M121.626 86.4125L121.904 87.9452C121.955 88.2436 122.213 88.4596 122.521 88.4596C123.725 88.4596 125.083 88.5522 126.554 88.3773C126.914 88.3362 127.151 87.9967 127.089 87.6469L126.811 86.1038C126.749 85.7747 126.441 85.5483 126.112 85.5895C124.702 85.7644 123.396 85.6615 122.233 85.6821C121.842 85.6821 121.554 86.0318 121.626 86.4125Z" fill="white"/>
<path d="M114.024 84.8694L114.261 86.1655C114.292 86.361 114.415 86.5256 114.6 86.6182C115.619 87.112 117.049 87.5955 118.962 87.8732C119.384 87.9349 119.744 87.5646 119.672 87.1428L119.404 85.6615C119.353 85.394 119.137 85.1883 118.859 85.1471C117.193 84.9414 115.886 84.5813 114.868 84.1801C114.405 83.995 113.932 84.3859 114.024 84.8694Z" fill="white"/>
<path d="M163.835 76.7528L164.092 78.2136C164.133 78.4707 164.339 78.6662 164.596 78.7176C165.964 78.9748 166.54 79.1188 167.867 79.6126C168.32 79.7772 168.783 79.3966 168.7 78.9131L168.464 77.5758C168.423 77.3597 168.279 77.1848 168.083 77.1025C166.684 76.5265 166.036 76.331 164.586 76.0224C164.143 75.9401 163.752 76.3104 163.835 76.7528Z" fill="white"/>
<path d="M142.808 82.0095L143.085 83.532C143.157 83.9126 143.559 84.1492 143.919 84.0052C145.256 83.5114 146.501 82.9971 147.653 82.4827C147.91 82.3695 148.054 82.0815 148.013 81.8037L147.745 80.2915C147.673 79.8903 147.241 79.664 146.871 79.8286C145.739 80.3327 144.515 80.8265 143.219 81.2997C142.921 81.4128 142.746 81.7112 142.808 82.0095Z" fill="white"/>
<path d="M156.459 76.4751L156.736 78.0181C156.798 78.3473 157.096 78.5634 157.426 78.5222C158.681 78.3782 160.028 78.2856 161.314 78.3473C161.726 78.3679 162.045 78.0079 161.973 77.6169L161.705 76.1047C161.654 75.8167 161.417 75.6007 161.129 75.5904C159.761 75.5081 158.331 75.5904 157.004 75.7344C156.644 75.7858 156.397 76.1253 156.459 76.4751Z" fill="white"/>
<path d="M149.577 78.913L149.844 80.4253C149.916 80.8265 150.338 81.0528 150.708 80.8882C151.603 80.5075 153.136 79.6949 154.319 79.3451C154.628 79.2525 154.823 78.9542 154.761 78.6353L154.484 77.0922C154.422 76.7219 154.041 76.4955 153.681 76.6087C152.385 76.9996 150.739 77.8843 149.947 78.2238C149.669 78.3472 149.525 78.625 149.577 78.913Z" fill="white"/>
<path d="M111.981 64.3155C111.61 64.3155 111.24 64.2229 110.911 64.0583L104.883 61.0441C104.368 60.787 104.039 60.2623 104.039 59.676C104.039 59.0896 104.358 58.5649 104.872 58.2975L122.391 49.2242C122.649 49.0904 122.947 49.0184 123.235 49.0184C123.523 49.0184 123.801 49.0802 124.058 49.2139L130.333 52.3618C130.847 52.6189 131.177 53.1436 131.177 53.7197C131.177 54.2958 130.868 54.8307 130.343 55.0982L122.926 58.9353C122.71 59.0484 122.463 59.1102 122.216 59.1102H122.134L121.98 59.0896L121.219 58.9764C121.208 59.0793 121.198 59.1925 121.167 59.2953C121.054 59.7068 120.776 60.0463 120.396 60.2417L113.061 64.0377C112.742 64.2229 112.361 64.3155 111.981 64.3155Z" fill="white"/>
<path d="M123.8 49.6885L123.809 49.6928L130.083 52.8404L123.8 49.6885ZM123.8 49.6885L123.792 49.6846M123.8 49.6885L123.792 49.6846M123.792 49.6846C123.624 49.6084 123.43 49.5574 123.225 49.5574C123.013 49.5574 122.818 49.6112 122.634 49.696L122.624 49.7008L122.614 49.706L105.095 58.7793L105.095 58.7792L105.086 58.7839C104.383 59.1656 104.367 60.2036 105.112 60.5758L111.14 63.5899C111.394 63.7168 111.686 63.7868 111.97 63.7868C112.265 63.7868 112.561 63.7168 112.829 63.5758C112.83 63.5755 112.83 63.5752 112.831 63.5749L120.163 59.7805L120.17 59.7768L120.177 59.7727C120.667 59.4984 120.865 58.8593 120.556 58.3572C120.556 58.3559 120.557 58.3541 120.558 58.3518C120.559 58.351 120.559 58.3503 120.559 58.3497C120.569 58.3509 120.58 58.3521 120.591 58.353L122.03 58.5699C122.074 58.5816 122.11 58.5859 122.131 58.588C122.169 58.5918 122.204 58.5918 122.215 58.5917L122.216 58.5917C122.377 58.5917 122.541 58.5527 122.69 58.4702L130.1 54.637L130.1 54.6371M123.792 49.6846L130.1 54.6371M130.1 54.6371L130.109 54.6323M130.1 54.6371L130.109 54.6323M130.109 54.6323C130.812 54.2507 130.828 53.2131 130.084 52.8407L130.109 54.6323ZM104.617 57.8373L104.619 57.8362L122.136 48.7638C122.136 48.7637 122.137 48.7635 122.137 48.7634C122.468 48.5937 122.852 48.5 123.225 48.5C123.6 48.5 123.967 48.5851 124.299 48.7466L130.572 51.8931L130.574 51.8945C131.275 52.2408 131.706 52.9403 131.716 53.7223C131.715 54.5061 131.29 55.2147 130.599 55.5686L130.597 55.5696L123.183 59.4051C122.877 59.5578 122.553 59.6389 122.227 59.6389C122.13 59.6389 122.065 59.6384 122.004 59.6316L121.671 59.5947L121.51 59.8884C121.323 60.2307 121.026 60.5213 120.659 60.7138C120.658 60.7139 120.658 60.7141 120.658 60.7142L113.327 64.508C113.327 64.5081 113.327 64.5083 113.326 64.5085C112.912 64.7197 112.445 64.8339 111.981 64.8339C111.532 64.8339 111.074 64.7279 110.672 64.5266L110.448 64.9738L110.672 64.5266L104.643 61.5125L104.641 61.5114C103.94 61.1651 103.509 60.4656 103.5 59.6836C103.501 58.8998 103.925 58.1912 104.617 57.8373Z" fill="#2A2D34" stroke="#2A2D34"/>
<path d="M121.64 56.3223L125.961 54.09C126.27 53.9254 126.208 53.6477 125.827 53.4522L123.708 52.3926C123.327 52.1972 122.762 52.1766 122.453 52.3309L118.132 54.5632C117.824 54.7278 117.886 55.0056 118.266 55.201L120.385 56.2606C120.766 56.4561 121.332 56.4869 121.64 56.3223Z" fill="#FFD530"/>
<path d="M112.711 61.0544L117.032 58.8118C117.361 58.6472 117.289 58.3386 116.888 58.1328L114.645 57.0115C114.234 56.8058 113.647 56.7749 113.318 56.9498L108.997 59.1924C108.668 59.357 108.74 59.6656 109.141 59.8714L111.384 60.9927C111.785 61.1984 112.382 61.219 112.711 61.0544Z" fill="#2DC275"/>
<path d="M18.6255 81.7179C18.5021 81.7179 18.3684 81.6974 18.2552 81.6459C17.998 81.5431 17.7923 81.3476 17.6894 81.1007L10.1078 63.7874C9.88144 63.2627 10.118 62.6558 10.6324 62.4295L11.6097 61.9974C11.7434 61.9357 11.8772 61.9151 12.0212 61.9151C12.1446 61.9151 12.2784 61.9357 12.4018 61.9871C12.5561 62.0489 12.6898 62.1414 12.7927 62.2649C12.7619 62.1003 12.7721 61.9357 12.8339 61.7608C12.9367 61.5036 13.1116 61.3493 13.3585 61.2362L14.4181 60.7732C14.5518 60.7115 14.6958 60.6909 14.8296 60.6909C15.2308 60.6909 15.6011 60.9173 15.776 61.3082C15.6834 61.051 15.6114 60.7938 15.7143 60.5469C15.8171 60.3 15.9406 60.1149 16.1978 60.012L17.2574 59.5491C17.3911 59.4873 17.5351 59.4668 17.6688 59.4668C18.07 59.4668 18.4404 59.6931 18.6153 60.084C18.5021 59.8371 18.4301 59.5799 18.533 59.3228C18.6358 59.0656 18.7593 58.8907 19.0165 58.7878L20.076 58.3249C20.2098 58.2632 20.3538 58.2426 20.4875 58.2426C20.8887 58.2426 21.2591 58.4689 21.4339 58.8598C21.2076 58.3352 21.3105 57.79 21.8351 57.5636L22.8124 57.1316C22.9462 57.0699 23.0799 57.0493 23.2239 57.0493C23.3474 57.0493 23.4811 57.0699 23.5943 57.1213C23.8514 57.2242 24.0572 57.4196 24.1601 57.6665L31.7314 74.9798C31.9577 75.5045 31.7211 76.1114 31.2068 76.3378L30.2295 76.7698C30.0958 76.8315 29.962 76.8521 29.818 76.8521C29.6946 76.8521 29.5608 76.8315 29.4477 76.7801C29.1905 76.6772 28.9847 76.4818 28.8819 76.2349C28.995 76.4818 29.067 76.739 28.9642 76.9961C28.8613 77.2533 28.7378 77.4282 28.4807 77.5311L27.4108 77.9734C27.2771 78.0351 27.133 78.0557 26.9993 78.0557C26.5981 78.0557 26.2278 77.8294 26.0529 77.4385C26.1661 77.6854 26.2381 77.9426 26.1352 78.1997C26.0323 78.4569 25.9089 78.6318 25.6517 78.7347L24.5921 79.1976C24.4584 79.2593 24.3144 79.2799 24.1806 79.2799C23.7794 79.2799 23.4091 79.0536 23.2342 78.6627C23.4605 79.1873 23.3577 79.7325 22.833 79.9588L21.7734 80.4218C21.6397 80.4835 21.4957 80.5041 21.3619 80.5041C20.9607 80.5041 20.5904 80.2777 20.4155 79.8868C20.5287 80.1337 20.6007 80.3909 20.4978 80.6481C20.3949 80.9053 20.2715 81.0801 20.0143 81.183L19.037 81.6151C18.9136 81.6871 18.7696 81.7179 18.6255 81.7179Z" fill="white"/>
<path d="M23.2136 58.0574L30.785 75.3708L29.8077 75.8028C29.6534 75.4428 29.3037 75.2268 28.9333 75.2268C28.8099 75.2268 28.6761 75.2576 28.5527 75.3091C28.0692 75.5251 27.8429 76.0806 28.0589 76.5641L26.9993 77.027C26.845 76.667 26.4953 76.4509 26.1249 76.4509C26.0015 76.4509 25.8677 76.4818 25.7443 76.5332C25.2608 76.7493 25.0448 77.3048 25.2505 77.7883L24.1909 78.2512C24.0366 77.8911 23.6869 77.6751 23.3165 77.6751C23.1931 77.6751 23.0593 77.706 22.9359 77.7574C22.4524 77.9734 22.2364 78.5289 22.4421 79.0124L21.3825 79.4754C21.2282 79.1153 20.8785 78.8993 20.5081 78.8993C20.3847 78.8993 20.2509 78.9301 20.1275 78.9816C19.644 79.1976 19.428 79.7531 19.6337 80.2366L18.6564 80.6687L11.0542 63.3759L12.0315 62.9439C12.1858 63.3039 12.5355 63.5199 12.9059 63.5199C13.0293 63.5199 13.1631 63.4891 13.2865 63.4376C13.77 63.2216 13.9963 62.6661 13.7803 62.1826L14.8399 61.7197C14.9942 62.0797 15.344 62.2958 15.7143 62.2958C15.8377 62.2958 15.9715 62.2649 16.0949 62.2135C16.5784 61.9974 16.7944 61.4419 16.5887 60.9584L17.6483 60.4955C17.8026 60.8556 18.1524 61.0716 18.5227 61.0716C18.6461 61.0716 18.7799 61.0407 18.9033 60.9893C19.3868 60.7733 19.6028 60.2177 19.3971 59.7342L20.4567 59.2713C20.611 59.6314 20.9608 59.8474 21.3311 59.8474C21.4545 59.8474 21.5883 59.8165 21.7117 59.7651C22.1952 59.5491 22.4112 58.9936 22.2055 58.5101L23.2136 58.0574ZM23.2136 56C22.9359 56 22.6581 56.0514 22.3907 56.1749L21.4134 56.6069C21.1048 56.7407 20.8373 56.9464 20.6316 57.2036C20.5801 57.2036 20.5287 57.1933 20.4875 57.1933C20.2098 57.1933 19.932 57.2447 19.6646 57.3682L18.605 57.8311C18.2964 57.9649 18.0289 58.1706 17.8232 58.4278C17.7717 58.4278 17.7306 58.4175 17.6791 58.4175C17.4014 58.4175 17.1133 58.4792 16.8562 58.5924L15.7966 59.0553C15.4777 59.189 15.2205 59.4051 15.0148 59.652C14.9633 59.652 14.9222 59.6417 14.8707 59.6417C14.593 59.6417 14.3049 59.7034 14.0478 59.8165L12.9882 60.2795C12.6796 60.4132 12.4121 60.6189 12.2064 60.8761C12.1549 60.8761 12.1035 60.8658 12.0623 60.8658C11.7846 60.8658 11.5068 60.9173 11.2394 61.0407L10.2312 61.4934C9.19222 61.946 8.719 63.1599 9.17164 64.1989L16.743 81.5122C17.0825 82.2838 17.8334 82.7467 18.6256 82.7467C18.9033 82.7467 19.1811 82.6952 19.4485 82.5718L20.4258 82.1397C20.7344 82.006 21.0019 81.8003 21.2076 81.5431C21.2591 81.5431 21.3105 81.5534 21.3517 81.5534C21.6294 81.5534 21.9072 81.5019 22.1746 81.3785L23.2342 80.9156C23.5428 80.7818 23.8103 80.5761 24.016 80.3189C24.0675 80.3189 24.1086 80.3292 24.1601 80.3292C24.4378 80.3292 24.7259 80.2675 24.983 80.1543L26.0426 79.6914C26.3615 79.5577 26.6187 79.3416 26.8244 79.0947C26.8759 79.0947 26.917 79.105 26.9685 79.105C27.2462 79.105 27.5343 79.0433 27.7914 78.9301L28.851 78.4672C29.1596 78.3335 29.4271 78.1277 29.6328 77.8706C29.6843 77.8706 29.7357 77.8808 29.7769 77.8808C30.0546 77.8808 30.3324 77.8294 30.5998 77.706L31.6183 77.2533C32.6573 76.8007 33.1305 75.5868 32.6779 74.5478L25.1065 57.2345C24.767 56.4526 24.0058 56 23.2136 56Z" fill="#2A2D34"/>
<path d="M16.5 77.363L30 71.363" stroke="#2A2D34" stroke-width="2" stroke-linecap="round" stroke-dasharray="2 3"/>
<path d="M22.444 61.3631L14 65.0583L17.6952 73.5023L26.1392 69.8071L22.444 61.3631Z" fill="#FFD530"/>
<path d="M64.0858 97.1948C64.0251 97.2334 63.9588 97.2633 63.8925 97.2933L61.8872 98.0314C61.5621 98.1527 61.2008 98.102 60.92 97.8904C60.6448 97.6875 60.4808 97.3529 60.5055 97.0081L61.3584 80.4374C61.3743 80.0981 61.5607 79.7969 61.8385 79.6203C61.8993 79.5816 61.9656 79.5517 62.0319 79.5218L64.2644 78.7001C64.5896 78.5788 64.9564 78.6382 65.2317 78.8411C65.5069 79.044 65.6621 79.3842 65.6375 79.729L64.566 96.3776C64.5414 96.7224 64.355 97.0237 64.0858 97.1948Z" fill="#FFD530"/>
<path d="M62.3674 80.4908L64.5999 79.6691L63.5285 96.3178L61.5232 97.0559L62.3674 80.4908ZM61.2638 78.7544C60.7082 79.1075 60.3496 79.7133 60.3122 80.3831L59.4593 96.9538C59.4242 97.6465 59.7323 98.3039 60.297 98.7129C60.853 99.1275 61.5756 99.2289 62.2259 98.9862L64.2312 98.2481C64.3693 98.1969 64.5018 98.137 64.6321 98.0542C65.179 97.7066 65.5344 97.115 65.5861 96.4484L66.6576 79.7997C66.7014 79.1015 66.3877 78.4354 65.8317 78.0208C65.2757 77.6063 64.5475 77.4962 63.8973 77.7389L61.6647 78.5605C61.5266 78.6117 61.3941 78.6716 61.2638 78.7544Z" fill="#2A2D34"/>
<path d="M86.4765 88.9853C86.4158 89.024 86.3495 89.0539 86.2832 89.0838L84.2779 89.822C83.8723 89.9701 83.4298 89.8491 83.1427 89.5318L72.3903 77.2166C72.1648 76.9577 72.0837 76.6192 72.1652 76.287C72.2308 76.0259 72.3895 75.8154 72.6066 75.6774C72.6673 75.6388 72.7336 75.6088 72.7999 75.5789L75.0411 74.7517C75.4468 74.6036 75.898 74.7191 76.1818 75.0506L86.707 87.4493C86.9183 87.705 87.0049 88.0523 86.9179 88.3757C86.861 88.6313 86.6936 88.8474 86.4765 88.9853Z" fill="#FFD530"/>
<path d="M73.1615 76.5315L75.394 75.7098L85.9192 88.1085L83.914 88.8467L73.1615 76.5315ZM72.0579 74.7951C71.6238 75.071 71.3032 75.5063 71.1664 76.0199C70.998 76.6754 71.1625 77.3753 71.608 77.8845L82.3605 90.1997C82.9171 90.8454 83.8196 91.0763 84.6166 90.7769L86.6219 90.0388C86.76 89.9876 86.8926 89.9277 87.0228 89.8449C87.4569 89.569 87.7775 89.1337 87.9111 88.6343C88.0851 87.9874 87.9261 87.2962 87.4893 86.7815L76.9641 74.3829C76.4019 73.7285 75.4939 73.4889 74.6827 73.7851L72.4501 74.6067C72.3207 74.6524 72.1881 74.7123 72.0579 74.7951Z" fill="#2A2D34"/>
<path d="M80.975 73.6742L56.7834 82.5405C55.3306 83.0739 53.723 82.3281 53.1952 80.884L50.817 74.3995C50.2836 72.9467 51.0294 71.3391 52.4735 70.8113L76.6651 61.945C78.1179 61.4117 79.7255 62.1574 80.2533 63.6016L82.6315 70.0861C83.1735 71.5334 82.4278 73.1409 80.975 73.6742Z" fill="#FFD530" stroke="#2A2D34" stroke-width="2" stroke-miterlimit="10" stroke-linecap="round" stroke-linejoin="round"/>
<path d="M58.3757 68.4375C62.2501 65.9751 63.3947 60.8382 60.9323 56.9639C58.4699 53.0895 53.333 51.9449 49.4587 54.4073C45.5843 56.8697 44.4397 62.0066 46.9021 65.8809C49.3645 69.7553 54.5014 70.8999 58.3757 68.4375Z" fill="#FFD530" stroke="#2A2D34" stroke-width="2" stroke-miterlimit="10" stroke-linecap="round" stroke-linejoin="round"/>
<path d="M55.545 63.9836C56.9595 63.0846 57.3774 61.2091 56.4784 59.7946C55.5794 58.3801 53.7039 57.9622 52.2894 58.8612C50.8749 59.7602 50.457 61.6357 51.356 63.0502C52.255 64.4647 54.1305 64.8826 55.545 63.9836Z" fill="white"/>
<path d="M73.9655 62.7222C77.8399 60.2598 78.9845 55.1229 76.5221 51.2486C74.0597 47.3743 68.9228 46.2297 65.0485 48.692C61.1741 51.1544 60.0295 56.2913 62.4919 60.1657C64.9543 64.04 70.0912 65.1846 73.9655 62.7222Z" fill="#FFD530" stroke="#2A2D34" stroke-width="2" stroke-miterlimit="10" stroke-linecap="round" stroke-linejoin="round"/>
<path d="M71.1348 58.2683C72.5493 57.3693 72.9672 55.4938 72.0681 54.0793C71.1691 52.6648 69.2937 52.2469 67.8791 53.1459C66.4646 54.0449 66.0467 55.9204 66.9457 57.3349C67.8448 58.7495 69.7202 59.1674 71.1348 58.2683Z" fill="white"/>
<path d="M82.2171 68.9355L89.8033 68.9043L86.4907 59.8567L80.6227 64.5857L82.2171 68.9355Z" fill="#FFD530" stroke="#2A2D34" stroke-width="2" stroke-miterlimit="10" stroke-linecap="round" stroke-linejoin="round"/>
<path d="M59.6813 77.1273C60.717 76.4691 61.023 75.0958 60.3647 74.0601C59.7065 73.0244 58.3332 72.7184 57.2975 73.3767C56.2618 74.0349 55.9558 75.4082 56.6141 76.4439C57.2724 77.4796 58.6456 77.7856 59.6813 77.1273Z" fill="#F5F7FC" stroke="#2A2D34" stroke-width="2" stroke-miterlimit="10" stroke-linecap="round" stroke-linejoin="round"/>
<path d="M68.8008 69.6126L76.3641 66.8413" stroke="#2A2D34" stroke-width="2" stroke-miterlimit="10" stroke-linecap="round" stroke-linejoin="round"/>
<path d="M70.0077 72.8925L77.571 70.1211" stroke="#2A2D34" stroke-width="2" stroke-miterlimit="10" stroke-linecap="round" stroke-linejoin="round"/>
<path d="M90.3214 63.5874C89.406 61.0912 87.8164 59.3784 86.771 59.7618C85.7255 60.1452 85.6202 62.4796 86.5356 64.9758C87.4511 67.472 89.0407 69.1848 90.0861 68.8014C91.1315 68.418 91.2369 66.0836 90.3214 63.5874Z" fill="#F5F7FC" stroke="#2A2D34" stroke-width="2" stroke-miterlimit="10" stroke-linecap="round" stroke-linejoin="round"/>
</g>
</svg>
