<svg width="40" height="40" fill="none" class="sc-1pb1hf-8 eiAVKX"><path d="M0 7c0-3.85 3.15-7 7-7h26c3.85 0 7 3.15 7 7v26c0 3.85-3.15 7-7 7H7c-3.85 0-7-3.15-7-7V7z" fill="#fff"></path><path d="M22.137 18.08l-2.082-2.673L22 14.127c.001 0 .002 0 .003-.002a.572.572 0 00-.631-.954l-2.947 1.94v-3.535-.004a.572.572 0 00-1.143.004v6.858a.572.572 0 001.143-.004v-1.95l.672-.443 2.138 2.745a.572.572 0 10.903-.702zM33.91 26.028l1.67-2.038a.572.572 0 10-.886-.723l-.002.003-1.522 1.857-1.521-1.857s0-.002-.002-.003a.572.572 0 00-.886.723l1.67 2.038-1.67 2.038a.571.571 0 10.886.722l.002-.002 1.521-1.857 1.522 1.857s0 .002.002.002a.572.572 0 00.886-.722l-1.67-2.038zM27.1 23.053A2.974 2.974 0 1027.118 29a2.974 2.974 0 00-.018-5.948zm.012 4.801a1.828 1.828 0 11-.01-3.656 1.828 1.828 0 01.01 3.656zM20.246 23.05a2.96 2.96 0 00-1.822.63v-2.107-.004a.572.572 0 00-1.143.004v4.479a2.972 2.972 0 002.887 2.942.744.744 0 00.137 0 2.973 2.973 0 00-.059-5.944zm.012 4.801a1.828 1.828 0 11-.01-3.655 1.828 1.828 0 01.01 3.655zM10.325 11.687a.572.572 0 10-1.12-.235.572.572 0 001.12.235zM10.342 13.629a.572.572 0 00-1.143.003V18.434a.572.572 0 001.143-.003v-4.799-.003zM14.203 17.858a1.829 1.829 0 01-.211-3.644c.55-.06 1.06.125 1.43.46a.553.553 0 00.686.05l.012-.008a.571.571 0 00.07-.894 2.97 2.97 0 00-2.16-.76 2.985 2.985 0 00-2.798 2.766 2.975 2.975 0 004.958 2.41.572.572 0 00-.069-.892.576.576 0 00-.709.048c-.32.288-.744.463-1.21.464zM28.727 16.096a2.984 2.984 0 00-2.786-3.034 2.974 2.974 0 00-3.153 3.17 2.986 2.986 0 002.875 2.77 2.96 2.96 0 001.58-.397.574.574 0 10-.577-.992 1.827 1.827 0 01-2.586-.847h3.953a.692.692 0 00.694-.67zm-4.755-.473a1.827 1.827 0 013.56 0h-3.56zM7.722 17.858H7.15a.572.572 0 01-.572-.57v-3.089h.572a.572.572 0 000-1.143h-.572v-1.483a.572.572 0 00-1.143 0v1.483h-.572a.572.572 0 000 1.143h.572v3.087c0 .945.77 1.712 1.715 1.712h.573a.57.57 0 000-1.14zM32.435 17.858h-.574a.572.572 0 01-.572-.57v-3.089h.572a.572.572 0 000-1.143h-.572v-1.483a.572.572 0 00-1.143 0v1.483h-.572a.572.572 0 000 1.143h.572v3.087c0 .945.77 1.712 1.715 1.712h.574a.57.57 0 000-1.14z" fill="#2DC275"></path></svg>