<svg width="24" height="24" fill="none"><path d="M12.245 14a2.5 2.5 0 100-5 2.5 2.5 0 000 5z" stroke="#828BA0" stroke-width="2" stroke-miterlimit="10" stroke-linecap="round" stroke-linejoin="round"></path><path d="M17.745 11.5c0-.465-.064-.913-.172-1.344l1.917-1.107-1.5-2.598-1.915 1.106a5.476 5.476 0 00-2.33-1.344V4h-3v2.212a5.5 5.5 0 00-2.33 1.345L6.5 6.451 5 9.049l1.917 1.107a5.512 5.512 0 00-.172 1.344c0 .464.064.913.172 1.344L5 13.951l1.5 2.598 1.916-1.106a5.476 5.476 0 002.33 1.344V19h3v-2.212a5.503 5.503 0 002.33-1.344l1.916 1.106 1.5-2.598-1.917-1.107c.106-.432.17-.881.17-1.345z" stroke="#828BA0" stroke-width="2" stroke-miterlimit="10" stroke-linecap="round" stroke-linejoin="round"></path></svg>